<?xml version="1.0" encoding="UTF-8" standalone="no"?>
<!DOCTYPE svg PUBLIC "-//W3C//DTD SVG 1.1//EN" "http://www.w3.org/Graphics/SVG/1.1/DTD/svg11.dtd">
<svg version="1.1"
     xmlns="http://www.w3.org/2000/svg"
     xmlns:xlink="http://www.w3.org/1999/xlink"
     preserveAspectRatio="xMidYMid meet"
     viewBox="344.5639097744361 330.27819548872174 111.73684210526318 91.21804511278197"
     width="53.87" height="43.61">
  <g transform="translate(344.5639097744361,337.63721804511273) scale(0.03525)">
    <!-- Black background (dimensions set to original canvas size) -->
    <rect width="3171.4285714285716" height="2171" fill="black"/>
    
    <g id="SvgjsG3931">
      <path d="M1968.8 831.5c-18.4-36.3-38.1-71.2-59.1-104.7-99.8 155-267 293.7-478.8 379.9l70.8 174.1c219.1-89.2 382-255 467.1-449.3z" fill="white"/>
      <path d="M1535.3 1043.8c29-16.1 57-33.1 84.1-50.9-186.4-89.3-358.9-275.8-459.6-523.4l-174.1 70.9c104.2 255.9 313 435.4 549.6 503.4z" fill="white"/>
      <path d="m1814.6 259.8-70.9-174.1C1494.4 187.2 1317.8 387.9 1246 617c17.4 28.7 35.8 56.2 54.9 82.8 92.7-178.9 274.9-342.8 513.7-440z" fill="white"/>
      <path d="M2185.7 821.8c-96.8-237.7-283.7-409.4-499.4-487.1-31.1 18.2-61.1 37.5-89.8 57.6 169.1 96.4 322.4 272.6 415.2 500.4zM1611.2 807.8c-59.9 0-108.3-48.4-108.3-108.2 0-59.9 48.4-108.3 108.3-108.3s108.3 48.4 108.3 108.3c0 59.8-48.4 108.2-108.3 108.2z" fill="white"/>
    </g>
    
    <path id="SvgjsG3932" fill-rule="evenodd" d="M382.3 1451.7h102.2L331.9 1833h-93.5L85.7 1451.7h101.6l97.8 274.8zm203.5 0h93.5V1833h-93.5zm207.3 372.1v-87.9c7.5 1.9 16.8 3.7 27.4 5q15.9 2.8 33.7 3.7c11.8.6 23.7 1.3 36.1 1.9 12.5.6 24.3 1.2 34.9 1.2 29.3 0 49.9-1.8 62.3-4.9 11.9-3.2 18.1-8.8 18.1-17.5 0-7.5-5.6-13.1-11.2-17.4-20.6-13.8-44.9-19.4-69.2-25-68.5-13.7-131.5-41.1-131.5-119.6 0-92.9 87.9-114.7 163.3-114.7 41.8 0 84.1 4.4 124.6 14.4v87.8c-6.2-1.8-14.3-3.1-24.3-5-10.6-1.2-21.2-2.5-33-3.7-24.3-2.5-47.4-3.7-71.7-3.7-13.7 0-42.3 0-55.4 4.9-8.7 3.2-14.4 6.9-14.4 16.9q0 7.4 3.8 13.1c2.5 4.3 6.8 7.4 12.5 10.6 16.8 9.3 38.6 14.9 57.3 19.3 15.6 3.7 31.1 8.1 47.3 12.4 54.9 15 91 45.5 91 104.1 0 96.6-95.9 117.1-173.2 117.1-42.4 0-86.6-3.1-128.4-13zm414.8-372.1h93.5v381.4h-93.5zm409.2 384.5c-117.2 0-196.3-79.8-196.3-193.8 0-117.8 82.8-193.8 196.3-193.8 117.7 0 196.2 79.1 196.2 193.8 0 118.4-82.2 193.8-196.2 193.8zm0-86.6c67.9 0 102.8-43.7 102.8-107.2 0-67.3-37.4-107.2-102.8-107.2-68.6 0-102.9 43.6-102.9 107.2 0 66 38.1 107.2 102.9 107.2zm616-23.1v96c-38.6 10.6-77.3 14.9-117.1 14.9-117.2 0-195.7-80.4-195.7-194.4 0-117.1 81.6-194.4 195-194.4 39.3 0 80.4 3.1 117.8 14.9v96c-30.5-14.9-78.5-20.6-112.2-20.6-76 0-107.1 31.2-107.1 103.5 0 76.6 36.7 104.7 107.8 104.7 31.7 0 83.5-5 111.5-20.6zm348.1-274.8h93.5v225.6c0 99.1-71.1 158.9-165.2 158.9-96.5 0-165.1-63.6-165.1-158.9v-225.6h93.5v225.6c0 44.8 26.8 72.3 71.6 72.3 46.2 0 71.7-26.8 71.7-72.3zm221 0h283.5v86.6h-190.1v61.1h152.7v86.6h-152.7v60.4h190.1v86.6h-283.5z" fill="white"/>
  </g>
</svg>
