
<svg version="1.2" xmlns="http://www.w3.org/2000/svg" viewBox="0 0 113 92" width="113" height="92">
	<title>logo (1)</title>
	<style>
		.s0 { fill: #ffffff } 
	</style>
	<g>
		<g id="SvgjsG3931">
			<path fill="#fff" d="m78.3 52.6q-1.5-3-3.2-5.8c-5.5 8.6-14.8 16.2-26.5 21l3.9 9.6c12.1-4.9 21.1-14.1 25.8-24.8z"/>
			<path fill="#fff" d="m54.4 64.3q2.4-1.3 4.6-2.8c-10.3-4.9-19.8-15.2-25.4-28.9l-9.6 3.9c5.8 14.1 17.3 24.1 30.4 27.8z"/>
			<path fill="#fff" d="m69.8 21l-3.9-9.6c-13.8 5.6-23.5 16.7-27.5 29.3q1.5 2.4 3 4.6c5.2-9.9 15.2-18.9 28.4-24.3z"/>
			<path fill="#fff" d="m90.3 52c-5.3-13.1-15.7-22.6-27.6-26.9q-2.5 1.5-4.9 3.2c9.3 5.3 17.8 15.1 22.9 27.7zm-31.7-0.8c-3.3 0-6-2.7-6-6 0-3.3 2.7-6 6-6 3.3 0 6 2.7 6 6 0 3.3-2.7 6-6 6z"/>
		</g>
	</g>
</svg>